<svg version="1.1" id="Layer_1" xmlns="http://www.w3.org/2000/svg" xmlns:xlink="http://www.w3.org/1999/xlink" x="0px" y="0px"
	 width="100%" viewBox="0 0 512 512" enable-background="new 0 0 512 512" xml:space="preserve">
<path fill="#000000" opacity="1.000000" stroke="none" 
	d="
M341.000000,513.000000 
	C227.360947,513.000000 114.221886,513.000000 1.041413,513.000000 
	C1.041413,342.402588 1.041413,171.805161 1.041413,1.103867 
	C171.555725,1.103867 342.111542,1.103867 512.833679,1.103867 
	C512.833679,171.666534 512.833679,342.333252 512.833679,513.000000 
	C455.805145,513.000000 398.652557,513.000000 341.000000,513.000000 
M268.477081,164.074265 
	C227.647034,165.025345 196.234940,182.667542 173.962997,216.681259 
	C179.476044,220.848007 184.712753,224.397614 189.483826,228.490082 
	C202.640823,239.775757 212.121719,253.691025 217.942612,270.023712 
	C219.668716,274.867004 218.133118,279.414948 214.289978,281.927277 
	C210.373825,284.487335 206.208084,284.582977 202.742569,281.515076 
	C200.746246,279.747833 199.347809,277.033508 198.317688,274.487549 
	C184.309891,239.867264 150.145950,219.900330 113.152451,224.837021 
	C71.843407,230.349594 42.601974,266.619232 44.900188,309.493744 
	C47.032909,349.280762 81.439407,382.484680 121.894035,383.027222 
	C156.385925,383.489807 190.888565,383.194183 225.385849,383.069794 
	C226.907272,383.064270 229.133484,381.799896 229.830032,380.485352 
	C236.080475,368.689453 245.852829,363.156921 259.052551,363.171967 
	C287.717651,363.204681 316.382812,363.200134 345.047913,363.174255 
	C358.227234,363.162354 368.094177,368.586761 374.221008,380.484344 
	C374.794403,381.597748 376.187744,383.047729 377.203491,383.050140 
	C383.352936,383.064850 389.532837,382.973785 395.635559,382.305969 
	C397.490814,382.102936 399.741364,380.332611 400.769409,378.645508 
	C405.244934,371.300659 411.347382,365.281464 419.721771,364.463409 
	C427.744019,363.679810 430.725586,358.944550 432.747009,352.975922 
	C434.751678,347.056793 436.624451,340.752258 436.716064,334.589386 
	C437.000793,315.438538 428.722198,300.345673 412.136505,290.674805 
	C395.574341,281.017639 378.537933,281.346680 361.773285,290.728302 
	C354.956177,294.543182 349.243896,293.695404 346.128906,288.262299 
	C342.999573,282.804199 344.825104,276.917664 351.790100,273.498505 
	C359.614166,269.657623 367.890320,266.737640 376.241272,263.305420 
	C373.289825,209.596878 325.563263,165.341492 268.477081,164.074265 
M277.867950,144.562881 
	C324.012970,149.376022 358.366638,172.485123 381.996307,212.027374 
	C408.715424,192.121689 417.708557,153.736328 403.124969,122.746910 
	C388.148071,90.921852 352.786346,73.955971 318.688202,82.235786 
	C289.439240,89.338112 262.483948,119.436356 263.559845,144.432236 
	C268.004425,144.432236 272.481659,144.432236 277.867950,144.562881 
M143.500000,493.000702 
	C179.652878,493.000702 215.805771,493.000824 251.958649,493.000671 
	C262.062073,493.000610 266.815948,489.860748 266.917725,483.121735 
	C267.020905,476.290283 262.078217,472.999390 251.714005,472.999329 
	C234.220673,472.999237 216.727325,472.999725 199.233994,472.999115 
	C192.070053,472.998871 184.904770,473.082184 177.742599,472.968811 
	C171.629150,472.872101 167.282135,468.832153 167.078903,463.334961 
	C166.882507,458.022583 170.748245,453.826569 176.567490,453.025360 
	C177.715454,452.867310 178.905304,452.824738 179.997009,452.479614 
	C184.409073,451.084686 187.209885,447.183746 186.990814,442.671112 
	C186.763062,437.980347 184.220535,434.902924 179.842377,433.487061 
	C178.306824,432.990479 176.561371,433.018311 174.911652,433.017517 
	C127.596344,432.994995 80.281021,432.998901 32.965694,433.002136 
	C31.966650,433.002197 30.956789,432.958405 29.970381,433.081970 
	C24.880415,433.719666 21.096251,437.884186 21.029341,442.860229 
	C20.962399,447.838776 24.641582,452.162842 29.701900,452.870758 
	C31.339397,453.099823 33.027428,452.995941 34.692356,452.996399 
	C59.849442,453.003540 85.006645,452.962341 110.163528,453.032898 
	C116.240128,453.049927 120.640343,457.184540 120.862709,462.649658 
	C121.076012,467.891998 117.127563,472.177551 111.354851,472.969299 
	C104.202240,473.950287 100.528564,477.788696 100.968300,483.821594 
	C101.382195,489.500000 105.672630,492.959167 112.511459,492.989105 
	C122.507462,493.032867 132.503799,493.000580 143.500000,493.000702 
M445.748230,467.930878 
	C443.209808,471.774017 439.660706,473.705750 435.100708,472.752319 
	C430.091949,471.705017 427.715485,468.007782 426.810242,463.134003 
	C420.256287,463.134003 413.781860,463.134003 407.345306,463.134003 
	C405.184937,470.892181 402.465607,472.975494 394.536621,472.995209 
	C387.705414,473.012177 380.874146,472.997406 374.042908,472.999023 
	C361.713379,473.001923 349.382507,472.899719 337.054901,473.056335 
	C331.040314,473.132751 326.883575,477.561218 326.990845,483.194763 
	C327.094086,488.613983 331.173492,492.629303 336.954590,492.980682 
	C337.784851,493.031158 338.620270,493.000610 339.453308,493.000610 
	C386.438904,493.001312 433.424469,493.002167 480.410065,492.996552 
	C481.741638,492.996368 483.104095,493.095245 484.399139,492.858215 
	C488.735168,492.064575 492.271912,489.482452 492.483887,485.215729 
	C492.644165,481.988861 491.214722,478.009735 489.103973,475.563904 
	C487.515900,473.723663 483.746979,473.211670 480.910980,473.103821 
	C471.577942,472.748901 469.558167,471.546112 466.547394,463.097717 
	C460.265839,463.097717 453.948822,463.097717 447.507263,463.097717 
	C447.019836,464.479431 446.540131,465.839264 445.748230,467.930878 
M352.411652,384.865387 
	C350.357025,384.302185 348.304138,383.255859 346.247498,383.248444 
	C316.763000,383.142120 287.277863,383.126404 257.793243,383.215515 
	C251.467056,383.234619 247.002151,387.694672 247.064240,393.336517 
	C247.127106,399.049652 251.476974,403.139130 258.002533,403.154419 
	C287.320679,403.223206 316.639099,403.170319 345.957336,403.200836 
	C350.744812,403.205811 354.423828,401.496399 356.264496,396.888000 
	C358.107269,392.274323 356.713379,388.442657 352.411652,384.865387 
M447.816437,383.223572 
	C440.994690,383.208099 434.168945,383.042450 427.352356,383.222198 
	C421.349823,383.380585 417.057617,387.754364 417.063324,393.241180 
	C417.069092,398.795288 421.280701,402.964905 427.385590,403.130524 
	C433.371399,403.292938 439.365112,403.232574 445.354523,403.177704 
	C452.080170,403.116089 456.198608,400.032318 456.949921,394.636536 
	C457.682556,389.374878 454.854889,385.524628 447.816437,383.223572 
z"/>
<path fill="#A0C8FE" opacity="1.000000" stroke="none" 
	d="
M268.955933,164.075897 
	C325.563263,165.341492 373.289825,209.596878 376.241272,263.305420 
	C367.890320,266.737640 359.614166,269.657623 351.790100,273.498505 
	C344.825104,276.917664 342.999573,282.804199 346.128906,288.262299 
	C349.243896,293.695404 354.956177,294.543182 361.773285,290.728302 
	C378.537933,281.346680 395.574341,281.017639 412.136505,290.674805 
	C428.722198,300.345673 437.000793,315.438538 436.716064,334.589386 
	C436.624451,340.752258 434.751678,347.056793 432.747009,352.975922 
	C430.725586,358.944550 427.744019,363.679810 419.721771,364.463409 
	C411.347382,365.281464 405.244934,371.300659 400.769409,378.645508 
	C399.741364,380.332611 397.490814,382.102936 395.635559,382.305969 
	C389.532837,382.973785 383.352936,383.064850 377.203491,383.050140 
	C376.187744,383.047729 374.794403,381.597748 374.221008,380.484344 
	C368.094177,368.586761 358.227234,363.162354 345.047913,363.174255 
	C316.382812,363.200134 287.717651,363.204681 259.052551,363.171967 
	C245.852829,363.156921 236.080475,368.689453 229.830032,380.485352 
	C229.133484,381.799896 226.907272,383.064270 225.385849,383.069794 
	C190.888565,383.194183 156.385925,383.489807 121.894035,383.027222 
	C81.439407,382.484680 47.032909,349.280762 44.900188,309.493744 
	C42.601974,266.619232 71.843407,230.349594 113.152451,224.837021 
	C150.145950,219.900330 184.309891,239.867264 198.317688,274.487549 
	C199.347809,277.033508 200.746246,279.747833 202.742569,281.515076 
	C206.208084,284.582977 210.373825,284.487335 214.289978,281.927277 
	C218.133118,279.414948 219.668716,274.867004 217.942612,270.023712 
	C212.121719,253.691025 202.640823,239.775757 189.483826,228.490082 
	C184.712753,224.397614 179.476044,220.848007 173.962997,216.681259 
	C196.234940,182.667542 227.647034,165.025345 268.955933,164.075897 
z"/>
<path fill="#FECC68" opacity="1.000000" stroke="none" 
	d="
M277.413422,144.497559 
	C272.481659,144.432236 268.004425,144.432236 263.559845,144.432236 
	C262.483948,119.436356 289.439240,89.338112 318.688202,82.235786 
	C352.786346,73.955971 388.148071,90.921852 403.124969,122.746910 
	C417.708557,153.736328 408.715424,192.121689 381.996307,212.027374 
	C358.366638,172.485123 324.012970,149.376022 277.413422,144.497559 
z"/>
<path fill="#CED2DE" opacity="1.000000" stroke="none" 
	d="
M143.000000,493.000702 
	C132.503799,493.000580 122.507462,493.032867 112.511459,492.989105 
	C105.672630,492.959167 101.382195,489.500000 100.968300,483.821594 
	C100.528564,477.788696 104.202240,473.950287 111.354851,472.969299 
	C117.127563,472.177551 121.076012,467.891998 120.862709,462.649658 
	C120.640343,457.184540 116.240128,453.049927 110.163528,453.032898 
	C85.006645,452.962341 59.849442,453.003540 34.692356,452.996399 
	C33.027428,452.995941 31.339397,453.099823 29.701900,452.870758 
	C24.641582,452.162842 20.962399,447.838776 21.029341,442.860229 
	C21.096251,437.884186 24.880415,433.719666 29.970381,433.081970 
	C30.956789,432.958405 31.966650,433.002197 32.965694,433.002136 
	C80.281021,432.998901 127.596344,432.994995 174.911652,433.017517 
	C176.561371,433.018311 178.306824,432.990479 179.842377,433.487061 
	C184.220535,434.902924 186.763062,437.980347 186.990814,442.671112 
	C187.209885,447.183746 184.409073,451.084686 179.997009,452.479614 
	C178.905304,452.824738 177.715454,452.867310 176.567490,453.025360 
	C170.748245,453.826569 166.882507,458.022583 167.078903,463.334961 
	C167.282135,468.832153 171.629150,472.872101 177.742599,472.968811 
	C184.904770,473.082184 192.070053,472.998871 199.233994,472.999115 
	C216.727325,472.999725 234.220673,472.999237 251.714005,472.999329 
	C262.078217,472.999390 267.020905,476.290283 266.917725,483.121735 
	C266.815948,489.860748 262.062073,493.000610 251.958649,493.000671 
	C215.805771,493.000824 179.652878,493.000702 143.000000,493.000702 
z"/>
<path fill="#CED2DE" opacity="1.000000" stroke="none" 
	d="
M445.904327,467.565002 
	C446.540131,465.839264 447.019836,464.479431 447.507263,463.097717 
	C453.948822,463.097717 460.265839,463.097717 466.547394,463.097717 
	C469.558167,471.546112 471.577942,472.748901 480.910980,473.103821 
	C483.746979,473.211670 487.515900,473.723663 489.103973,475.563904 
	C491.214722,478.009735 492.644165,481.988861 492.483887,485.215729 
	C492.271912,489.482452 488.735168,492.064575 484.399139,492.858215 
	C483.104095,493.095245 481.741638,492.996368 480.410065,492.996552 
	C433.424469,493.002167 386.438904,493.001312 339.453308,493.000610 
	C338.620270,493.000610 337.784851,493.031158 336.954590,492.980682 
	C331.173492,492.629303 327.094086,488.613983 326.990845,483.194763 
	C326.883575,477.561218 331.040314,473.132751 337.054901,473.056335 
	C349.382507,472.899719 361.713379,473.001923 374.042908,472.999023 
	C380.874146,472.997406 387.705414,473.012177 394.536621,472.995209 
	C402.465607,472.975494 405.184937,470.892181 407.345306,463.134003 
	C413.781860,463.134003 420.256287,463.134003 426.810242,463.134003 
	C427.715485,468.007782 430.091949,471.705017 435.100708,472.752319 
	C439.660706,473.705750 443.209808,471.774017 445.904327,467.565002 
z"/>
<path fill="#CCD0DC" opacity="1.000000" stroke="none" 
	d="
M352.739441,385.075562 
	C356.713379,388.442657 358.107269,392.274323 356.264496,396.888000 
	C354.423828,401.496399 350.744812,403.205811 345.957336,403.200836 
	C316.639099,403.170319 287.320679,403.223206 258.002533,403.154419 
	C251.476974,403.139130 247.127106,399.049652 247.064240,393.336517 
	C247.002151,387.694672 251.467056,383.234619 257.793243,383.215515 
	C287.277863,383.126404 316.763000,383.142120 346.247498,383.248444 
	C348.304138,383.255859 350.357025,384.302185 352.739441,385.075562 
z"/>
<path fill="#CBCFDB" opacity="1.000000" stroke="none" 
	d="
M448.238892,383.287079 
	C454.854889,385.524628 457.682556,389.374878 456.949921,394.636536 
	C456.198608,400.032318 452.080170,403.116089 445.354523,403.177704 
	C439.365112,403.232574 433.371399,403.292938 427.385590,403.130524 
	C421.280701,402.964905 417.069092,398.795288 417.063324,393.241180 
	C417.057617,387.754364 421.349823,383.380585 427.352356,383.222198 
	C434.168945,383.042450 440.994690,383.208099 448.238892,383.287079 
z"/>
</svg>